<?xml version="1.0" encoding="UTF-8"?>
<!DOCTYPE svg  PUBLIC '-//W3C//DTD SVG 1.1//EN'  'http://www.w3.org/Graphics/SVG/1.1/DTD/svg11.dtd'>
<svg enable-background="new 0 0 100 100" version="1.1" viewBox="0 0 100 100" xml:space="preserve" xmlns="http://www.w3.org/2000/svg">
<path d="m50 5c-24.813 0-45 20.187-45 45s20.187 45 45 45c24.814 0 45-20.188 45-45 0-24.813-20.186-45-45-45zm0 84.204c-21.617 0-39.204-17.587-39.204-39.204s17.586-39.204 39.204-39.204c21.619 0 39.205 17.587 39.205 39.204s-17.587 39.204-39.205 39.204z"/>
<path d="m50 10.796c-21.618 0-39.204 17.587-39.204 39.204s17.587 39.204 39.204 39.204c21.618 0 39.205-17.587 39.205-39.204s-17.586-39.204-39.205-39.204zm13.063 13.913c4.121 0 7.463 5.19 7.463 11.592s-3.342 11.592-7.463 11.592-7.461-5.19-7.461-11.592 3.339-11.592 7.461-11.592zm-26.066 0c4.121 0 7.462 5.19 7.462 11.592s-3.341 11.592-7.462 11.592-7.462-5.19-7.462-11.592 3.341-11.592 7.462-11.592zm35.868 39.016c-4.745 7.731-13.445 12.534-22.704 12.534-9.502 0-18.314-4.993-22.999-13.03-0.807-1.383-0.338-3.158 1.044-3.963 1.383-0.809 3.158-0.339 3.963 1.043 3.651 6.265 10.545 10.153 17.992 10.153 7.259 0 14.065-3.744 17.764-9.771 0.839-1.363 2.622-1.791 3.985-0.953 1.363 0.837 1.792 2.621 0.955 3.987z" fill="#FFF200"/>
<ellipse cx="36.997" cy="36.301" rx="7.462" ry="11.592"/>
<ellipse cx="63.063" cy="36.301" rx="7.463" ry="11.592"/>
<path d="m71.91 59.738c-1.363-0.838-3.146-0.41-3.985 0.953-3.698 6.025-10.505 9.771-17.764 9.771-7.447 0-14.341-3.89-17.992-10.153-0.805-1.382-2.58-1.852-3.963-1.043-1.382 0.805-1.851 2.579-1.044 3.963 4.685 8.037 13.497 13.03 22.999 13.03 9.259 0 17.959-4.803 22.704-12.534 0.837-1.366 0.408-3.15-0.955-3.987z"/>
</svg>
